. 
 
http://www.torrenting.com          :     Once & For all ;)


               www . Torrenting . Com 

(((((((((((((= Enjoy No RAR releases =))))))))))))))))))))


...................................NFO:....................................

.[IMG]http://i.imgur.com/2mcr9.png[/IMG]

 
TITLE: 

Happy Feet Two 2011 BRRiP AC3 XViD - INSPiRAL

IMDB: 
 
http://www.imdb.com/title/tt1823051/


SOURCES:

VIDEO - 1080p sector7 THANKS
AUDIO - 1080p sector7 THANKS
SUBS  - None Add

STATS:

Video
ID                               : 0
Format                           : MPEG-4 Visual
Format profile                   : Advanced Simple@L5
Format settings, BVOP            : 2
Format settings, QPel            : No
Format settings, GMC             : No warppoints
Format settings, Matrix          : Default (MPEG)
Muxing mode                      : Packed bitstream
Codec ID                         : XVID
Codec ID/Hint                    : XviD
Duration                         : 1h 39mn
Bit rate                         : 1 517 Kbps
Width                            : 720 pixels
Height                           : 304 pixels
Display aspect ratio             : 2.35:1
Frame rate                       : 23.976 fps
Color space                      : YUV
Chroma subsampling               : 4:2:0
Bit depth                        : 8 bits
Scan type                        : Progressive
Compression mode                 : Lossy
Bits/(Pixel*Frame)               : 0.289
Stream size                      : 1.05 GiB (77%)
Writing library                  : XviD 64

Audio
ID                               : 1
Format                           : AC-3
Format/Info                      : Audio Coding 3
Mode extension                   : CM (complete main)
Codec ID                         : 2000
Duration                         : 1h 39mn
Bit rate mode                    : Constant
Bit rate                         : 448 Kbps
Channel(s)                       : 6 channels
Channel positions                : Front: L C R, Side: L R, LFE
Sampling rate                    : 48.0 KHz
Bit depth                        : 16 bits
Compression mode                 : Lossy
Stream size                      : 319 MiB (23%)
Alignment                        : Aligned on interleaves
Interleave, duration             : 42 ms (1.00 video frame)
Interleave, preload duration     : 512 ms


NOTES:

Straight forward rip and then just converted DTS audio to AC3 and remuxed ....enjoy those happy feet :)


SCREENS:

[IMG]http://i.imgur.com/zWo7Y.png[/IMG]
[IMG]http://i.imgur.com/cgmqA.png[/IMG]
[IMG]http://i.imgur.com/sDMfj.png[/IMG]
[IMG]http://i.imgur.com/WweGA.png[/IMG]


GREETZ: 

Past,Present and Future

[IMG]http://i.imgur.com/2mcr9.png[/IMG]